<svg width="16" height="20" viewBox="0 0 16 20" fill="none" xmlns="http://www.w3.org/2000/svg">
<path fill-rule="evenodd" clip-rule="evenodd" d="M4.05836 5.35387C4.05836 3.19392 5.82642 1.43696 8 1.43696C10.1736 1.43696 11.9416 3.19392 11.9416 5.35387C11.9416 7.51281 10.1736 9.26977 8 9.26977C5.82642 9.26977 4.05836 7.51281 4.05836 5.35387ZM2.61233 5.35387C2.61233 8.30479 5.02943 10.7067 8 10.7067C10.9706 10.7067 13.3867 8.30479 13.3867 5.35387C13.3867 2.40194 10.9706 0 8 0C5.02943 0 2.61233 2.40194 2.61233 5.35387ZM6.97761 19.985C7.3127 19.995 7.65384 20 8 20C11.4345 20 16 19.619 16 16.3301C16 12.6392 9.97836 12.6392 8 12.6392C4.56553 12.6392 0 13.0202 0 16.3101C0 17.2951 0.460881 18.624 2.6566 19.363C3.03597 19.493 3.44453 19.288 3.57333 18.913C3.70113 18.538 3.49887 18.131 3.1205 18.004C1.61811 17.4981 1.44503 16.7951 1.44503 16.3101C1.44503 14.8271 3.65082 14.0751 8 14.0751C12.3492 14.0751 14.555 14.8341 14.555 16.3301C14.555 17.8121 12.3492 18.563 8 18.563C7.66792 18.563 7.34088 18.559 7.01887 18.55C6.63245 18.553 6.2883 18.851 6.27723 19.247C6.26516 19.644 6.57912 19.975 6.97761 19.985Z" fill="#7B8D9E"/>
</svg>
